<?xml version="1.0" encoding="utf-8"?>
<!-- Generator: Adobe Illustrator 23.1.0, SVG Export Plug-In . SVG Version: 6.00 Build 0)  -->
<svg version="1.1" id="Layer_2" xmlns="http://www.w3.org/2000/svg" xmlns:xlink="http://www.w3.org/1999/xlink" x="0px" y="0px"
	 viewBox="0 0 512 512" style="enable-background:new 0 0 512 512;" xml:space="preserve">
<style type="text/css">
	.st0{fill:#F18C8E;}
	.st1{fill:#F1F1EF;}
	.st2{fill:#FFFFFF;}
</style>
<path class="st0" d="M13.3,237.9l11.5-14.3c5.9-7.4,7.8-17.1,5.2-26.2l-5.1-17.6c-3.8-13,2-26.9,13.9-33.5l16-8.8
	c8.3-4.5,13.8-12.8,14.8-22.2l2-18.2c1.5-13.5,12.1-24.1,25.6-25.6l18.2-2c9.4-1,17.7-6.6,22.2-14.8l8.8-16
	c6.5-11.9,20.4-17.7,33.5-13.9l17.6,5.1c9.1,2.6,18.8,0.7,26.2-5.2l14.3-11.5c10.6-8.5,25.6-8.5,36.2,0l14.3,11.5
	c7.4,5.9,17.1,7.8,26.2,5.2l17.6-5.1c13-3.8,26.9,2,33.5,13.9l8.8,16c4.5,8.3,12.8,13.8,22.2,14.8l18.2,2
	c13.5,1.5,24.1,12.1,25.6,25.6l2,18.2c1,9.4,6.6,17.7,14.8,22.2l16,8.8c11.9,6.5,17.7,20.4,13.9,33.5l-5.1,17.6
	c-2.6,9.1-0.7,18.8,5.2,26.2l11.5,14.3c8.5,10.6,8.5,25.6,0,36.2l-11.5,14.3c-5.9,7.4-7.8,17.1-5.2,26.2l5.1,17.6
	c3.8,13-2,26.9-13.9,33.5l-16,8.8c-8.3,4.5-13.8,12.8-14.8,22.2l-2,18.2c-1.5,13.5-12.1,24.1-25.6,25.6l-18.2,2
	c-9.4,1-17.7,6.6-22.2,14.8l-8.8,16c-6.5,11.9-20.4,17.7-33.5,13.9l-17.6-5.1c-9.1-2.6-18.8-0.7-26.2,5.2l-14.3,11.5
	c-10.6,8.5-25.6,8.5-36.2,0l-14.3-11.5c-7.4-5.9-17.1-7.8-26.2-5.2l-17.6,5.1c-13,3.8-26.9-2-33.5-13.9l-8.8-16
	c-4.5-8.3-12.8-13.8-22.2-14.8l-18.2-2c-13.5-1.5-24.1-12.1-25.6-25.6l-2-18.2c-1-9.4-6.6-17.7-14.8-22.2l-16-8.8
	c-11.9-6.5-17.7-20.4-13.9-33.5l5.1-17.6c2.6-9.1,0.7-18.8-5.2-26.2l-11.5-14.3C4.9,263.5,4.9,248.5,13.3,237.9L13.3,237.9z"/>
<circle class="st1" cx="256" cy="256" r="183.7"/>
<path class="st2" d="M230.1,347.7L126.7,244.3L155,216l75.1,75.1L357,164.3l28.3,28.3L230.1,347.7z"/>
</svg>
