<?xml version="1.0" encoding="utf-8"?>
<!-- Generator: Adobe Illustrator 23.1.0, SVG Export Plug-In . SVG Version: 6.00 Build 0)  -->
<svg version="1.1" id="Слой_1" xmlns="http://www.w3.org/2000/svg" xmlns:xlink="http://www.w3.org/1999/xlink" x="0px" y="0px"
	 viewBox="0 0 512 512" style="enable-background:new 0 0 512 512;" xml:space="preserve">
<style type="text/css">
	.st0{fill:#B2A6A6;}
	.st1{fill:#FA7876;}
	.st2{fill:#FFFFFF;}
</style>
<path class="st0" d="M480.6,48.6H31.4c-13.2,0-23.8,10.7-23.8,23.8V374c0,13.2,10.7,23.8,23.8,23.8h141.5c5.3,0,10.4,2.1,14.2,5.9
	l54.7,54.7c7.8,7.8,20.6,7.8,28.4,0l54.7-54.7c3.8-3.8,8.9-5.9,14.2-5.9h141.5c13.2,0,23.8-10.7,23.8-23.8V72.4
	C504.4,59.2,493.8,48.6,480.6,48.6z"/>
<path class="st1" d="M212.4,371.6c-8.7-8.7-20.3-13.5-32.6-13.5H52.6c-2.6,0-4.8-2.1-4.8-4.8V92c0-2.6,2.1-4.8,4.8-4.8h405.8
	c2.6,0,4.8,2.1,4.8,4.8v261.4c0,2.6-2.1,4.8-4.8,4.8H332.2c-12.3,0-23.9,4.8-32.6,13.5l-40.2,40.2c-1.9,1.9-4.9,1.9-6.8,0
	L212.4,371.6z"/>
<path class="st2" d="M221.1,302.7c-6,0-11.8-2.4-16-6.6L157,248c-8.8-8.8-8.8-23.2,0-32s23.2-8.8,32,0l32.1,32.1l88.9-88.9
	c8.8-8.8,23.2-8.8,32,0s8.8,23.2,0,32l-105,105C232.9,300.4,227.1,302.7,221.1,302.7z"/>
<path d="M480.6,41H31.4C14.1,41,0,55.1,0,72.4V374c0,17.3,14.1,31.4,31.4,31.4h141.5c3.3,0,6.5,1.3,8.9,3.7l54.7,54.7
	c5.4,5.4,12.5,8.1,19.5,8.1c7.1,0,14.2-2.7,19.5-8.1l54.7-54.7c2.4-2.4,5.5-3.7,8.9-3.7h96.2c4.2,0,7.6-3.4,7.6-7.6
	s-3.4-7.6-7.6-7.6h-96.2c-7.4,0-14.3,2.9-19.5,8.1L264.9,453c-4.9,4.9-12.8,4.9-17.7,0l-54.7-54.7c-5.2-5.2-12.2-8.1-19.5-8.1H31.4
	c-9,0-16.3-7.3-16.3-16.3V72.4c0-9,7.3-16.3,16.3-16.3h449.2c9,0,16.3,7.3,16.3,16.3V374c0,9-7.3,16.3-16.3,16.3h-13.8
	c-4.2,0-7.6,3.4-7.6,7.6s3.4,7.6,7.6,7.6h13.8c17.3,0,31.4-14.1,31.4-31.4V72.4C512,55.1,497.9,41,480.6,41z"/>
<path d="M47.8,144.9c-4.2,0-7.6,3.4-7.6,7.6v200.9c0,6.8,5.5,12.3,12.3,12.3h127.2c10.3,0,20,4,27.3,11.3l40.2,40.2
	c2.3,2.3,5.4,3.6,8.7,3.6c3.3,0,6.4-1.3,8.7-3.6l40.2-40.2c7.3-7.3,17-11.3,27.3-11.3h126.2c6.8,0,12.3-5.5,12.3-12.3V92
	c0-6.8-5.5-12.3-12.3-12.3H52.6c-6.8,0-12.3,5.5-12.3,12.3v26.2c0,4.2,3.4,7.6,7.6,7.6c4.2,0,7.6-3.4,7.6-7.6V94.7h400.3v255.9
	H332.2c-14.3,0-27.8,5.6-38,15.7L256,404.5l-38.2-38.2c-10.1-10.1-23.6-15.7-37.9-15.7H55.4V152.5C55.4,148.3,52,144.9,47.8,144.9z"
	/>
<path d="M221.1,310.3c8.1,0,15.7-3.1,21.4-8.8l105-105c11.8-11.8,11.8-30.9,0-42.7c-11.8-11.8-30.9-11.8-42.7,0l-83.6,83.6
	l-26.7-26.7c-11.8-11.8-30.9-11.8-42.7,0s-11.8,30.9,0,42.7l48.1,48.1C205.5,307.1,213.1,310.3,221.1,310.3z M162.4,221.3
	c2.9-2.9,6.6-4.4,10.7-4.4s7.8,1.6,10.7,4.4l32.1,32.1c1.4,1.4,3.3,2.2,5.3,2.2s3.9-0.8,5.3-2.2l88.9-88.9c2.9-2.9,6.6-4.4,10.7-4.4
	s7.8,1.6,10.7,4.4c5.9,5.9,5.9,15.5,0,21.4l-105,105c-2.9,2.9-6.6,4.4-10.7,4.4s-7.8-1.6-10.7-4.4l-48.1-48.1
	C156.5,236.8,156.5,227.2,162.4,221.3z"/>
</svg>
